<svg xmlns="http://www.w3.org/2000/svg" viewBox="0 0 64 64">
  <defs>
    <linearGradient id="g" x1="0" y1="0" x2="1" y2="1">
      <stop offset="0%" stop-color="#ff8a4c"/>
      <stop offset="100%" stop-color="#ffb37a"/>
    </linearGradient>
  </defs>
  <rect width="64" height="64" rx="16" fill="url(#g)"/>
  <g transform="translate(8 9) scale(1.0)">
    <path fill="#1c0f06" d="M12 1.8c2.9 2.1 4.4 5.3 4.4 8.9 0 1.6-.3 3.2-.9 4.7 0 0-1.5.8-3.5.8s-3.5-.8-3.5-.8c-.6-1.5-.9-3.1-.9-4.7 0-3.6 1.5-6.8 4.4-8.9z" transform="scale(2)"/>
    <circle fill="#fff7ef" cx="24" cy="18.4" r="3.8"/>
    <path fill="#1c0f06" d="M15.2 26.8 10 35.2l6.8-2.2zM32.8 26.8 38 35.2l-6.8-2.2z"/>
    <path fill="#fff7ef" opacity=".85" d="M24 34.8c1.6 0 3.2-.2 4.4-.6-.8 3.2-2.4 6-4.4 8.4-2-2.4-3.6-5.2-4.4-8.4 1.2.4 2.8.6 4.4.6z"/>
  </g>
</svg>
